<svg version="1.1" id="Layer_1" xmlns="http://www.w3.org/2000/svg" x="0" y="0" viewBox="0 0 500 500" xml:space="preserve"><style>.st0{fill:#d34a47}</style><g id="XMLID_21_"><path id="XMLID_23_" class="st0" d="M294.6 421.5l3.5-58.4 9.7-16.5s-22 9-58.9 9c-36.8 0-58.5-8.8-58.5-8.8l10.8 18 3.8 56.7c0 6.1 20 11 44.8 11 24.8 0 44.8-4.9 44.8-11"/><path id="XMLID_27_" class="st0" d="M283.6 149l7.4-29.1 40.7-42.8-10.8-9.1-43.1 45.6-8.5 34.7c-6.2-.2-12.6-.3-19.3-.3-45.4 0-82.2 5.2-82.2 11.6 0 6.4 36.8 11.6 82.2 11.6 45.4 0 82.2-5.2 82.2-11.6 0-4.8-20-8.8-48.6-10.6"/><path id="XMLID_28_" d="M279.3 165.3s-1.6.4-6.3.4c-4.7 0-8 0-9.3-1.2-.4-.3-.6-1-.5-1.4 0-.8.6-1.3 1.3-1.6l.7 1.1c-.3.1-.5.2-.5.4 0 .6 4.8 1.1 8.5 1 3.7 0 8.1-.3 8.1-1 0-.2-.3-.4-.9-.5l.7-1.1c.9.3 1.8.9 1.8 1.9-.1 1.5-2.2 1.8-3.6 2" fill="#fff"/><path id="XMLID_29_" class="st0" d="M331.6 77.2c1-1.2-.5-4.2-3.5-6.8-2.9-2.5-6.2-3.7-7.2-2.5-1 1.2.5 4.2 3.5 6.8 2.9 2.6 6.1 3.7 7.2 2.5"/><path id="XMLID_30_" class="st0" d="M292.7 279c-1-9.3 20.3-22.7 14.8-23.2-11.7.7-17.6 13.8-23.5 27.5-2.2 5-9.6 26.5-14.4 23.8-4.9-2.6 6.3-20.3 9.4-30.7-3.6 2.6-16.8 12.9-20.3 3.3-5.5 4.7-17.2 7.2-15.9-5.1-2.9 5.2-9.5 12.4-17.3 9.4-10.3-3.9 6-36.8 10-35.2 4.1 1.7-.8 9.1-2.1 12.1-2.8 6.4-6 14.4-3.9 16.1 3.7 2.8 13.8-10.7 14-11 1.9-2.5 7.3-18.8 11.6-16.9 4.3 1.9-10.8 23.4-5.2 27.7 1.1.9 5.8-.5 8.7-3.6 1.8-2 1.2-6.4 7.3-21s11.6-32.8 15.8-31.5c4.2 1.4.7 10.7-.8 14.2-7.1 16.4-19.3 43.4-13.6 41.3 5.8-2 8.8-2.2 14.4-8.8 5.7-6.6 5.4-17.5 9.2-17.3 3.8.2 3.1 3.7 2.2 6.4 3.7-4.2 17.6-13.2 20.9-4.3 4 10.5-19.9 25.6-13.9 24.9 5.8-.8 15.2-6.7 19.2-12.1l11-99.1s-11.1 9.2-81.7 9.2c-70.6 0-80.5-9-80.5-9l9.4 90.5c5-14.2 16.8-42.8 35.5-41.8 8.5.4 19.8 16.8 10.1 17.3-4.1.2-4.5-8.2-9.4-9.4-3.5-.9-8.4 2-11.6 5.1-6.3 6.2-19.8 30.5-18 42.6 2.3 15.5 21.3-5.4 24.5-11.6 2.3-4.4 3.8-17.3 8.8-15.9 5 1.4-.4 14.7-4 26.4-4 13.2-6.2 27.2-11.2 25.6-5.1-1.6 3.2-18.7 2.9-21.7-4.8 4.4-13.5 15.5-24.8 10l5.8 56.2s15.5 12.2 62.2 12.2 62.7-12.1 62.7-12.1l7.2-65.1c-5.6 5.9-24.3 16.1-25.5 4.6"/></g></svg>